<svg xmlns="http://www.w3.org/2000/svg" id="ejection-hockey" fill="#d94140" viewBox="0 0 25 19.97"><g><path d="M24.38 12a.52.52 0 0 1-.38-.2c0-.05-4.23-4.79-8-8.69-4.62-4.79-11.42.07-12.73 1.1a.51.51 0 0 1-.63-.81c1.44-1.12 8.87-6.42 14.1-1 3.77 3.92 8.14 8.76 8.18 8.81.19.21 0 .44-.21.63a.5.5 0 0 1-.33.16z"></path><path d="M2.71 3.29C1.4 4 .17 5.54.15 8.59s2.59 7.06 6.51 7.19c3.77.12 5.23-1.75 5.66-3.06 1.11 1.31 6.4 6.64 6.4 6.64L25 15.6v-4.23l-5.95 3-7.62-9S7.52.69 2.71 3.29z"></path><path d="M15.13 3.33l.75 1.05-2.38 1.4-.74-1.03 2.37-1.42z"></path></g></svg>